<svg fill="none" xmlns="http://www.w3.org/2000/svg" viewBox="0 0 673 686"><ellipse cx="338" cy="468.5" rx="247" ry="217.5" fill="#E7E7E7"/><path fill-rule="evenodd" clip-rule="evenodd" d="M264.912 398.35c16.195 6.441 30.37 19.688 40.88 37.418 8.09-3.744 16.732-5.768 25.708-5.768 15.184 0 29.411 5.793 41.631 15.899 12.012-20.326 28.837-34.783 48.002-39.882C435.42 371.324 462.031 348 492.5 348c45.564 0 82.5 52.159 82.5 116.5 0 56.925-28.913 104.315-67.133 114.482C493.58 613.676 466.969 637 436.5 637c-15.184 0-29.411-5.793-41.631-15.899C379.736 646.707 356.965 663 331.5 663c-25.422 0-48.158-16.237-63.292-41.768-8.09 3.744-16.732 5.768-25.708 5.768-22.087 0-42.146-12.256-56.954-32.215-5.619 6.359-10.425 9.31-13.979 8.079-4.686-1.624-6.583-10.308-6.001-24.035C127.627 568.346 99 521.144 99 464.5c0-64.341 36.937-116.5 82.5-116.5 18.743 0 36.026 8.826 49.878 23.695 13.744-25.156 25.992-39.666 33.155-37.184 8.299 2.875 7.851 27.889.379 63.839Z" fill="#fff"/><ellipse cx="336" cy="566.5" rx="35" ry="22.5" fill="#7C5C4D"/><ellipse cx="336" cy="636.5" rx="35" ry="22.5" fill="#7C5C4D"/><ellipse cx="338" cy="297.5" rx="191" ry="162.5" fill="#E7E7E7"/><path fill-rule="evenodd" clip-rule="evenodd" d="M505.37 278.966c1.074-4.564 1.63-9.226 1.63-13.966 0-55.229-75.44-100-168.5-100S170 209.771 170 265c0 12.326 3.758 24.131 10.63 35.034-1.075 4.564-1.63 9.226-1.63 13.966 0 55.229 75.44 100 168.5 100S516 369.229 516 314c0-12.326-3.758-24.131-10.63-35.034Z" fill="#fff"/><path d="M142 384.5c-2 19.167-11.7 58.1-34.5 60.5-22.8 2.4-41.8333-136.667-48.5-206.5m0 0L36 201m23 37.5-53-23m53 23 14.5-16M544 365.182c1.809 17.358 10.582 52.617 31.202 54.79 20.621 2.174 37.835-123.768 43.864-187.011m0 0L639.868 199m-20.802 33.961L667 212.132m-47.934 20.829-13.114-14.49" stroke="#7C5C4D" stroke-width="11" stroke-linecap="round"/><path d="M161.466 231.949c118.505 30.053 207.819.269 312.134-45.621-10.322-67.673-94.833-131.6879-171.53-119.989-76.697 11.6989-150.926 97.937-140.604 165.61Z" fill="#F2615C"/><path d="M469.552 162.249c-12-.436-5.291 14.855-148.662 27.045-143.371 12.19-160.572-31.279-165.525 4.615-4.953 35.894 3.646 48.686 3.646 48.686s21.588 19.743 102.292 18.542c80.703-1.201 215.794-20.662 227.99-43.215 12.195-22.553-7.741-55.236-19.741-55.673Z" fill="#FAA2A7"/><circle cx="42.3964" cy="42.3964" r="42.3964" transform="scale(-1 1) rotate(-7.277 23.40816 2752.08462)" fill="#fff"/><path fill-rule="evenodd" clip-rule="evenodd" d="M317.408 319.673c-1.561.878-2.116 2.854-1.238 4.415 8.345 14.852 17.009 21.983 25.27 24.3 8.313 2.331 15.414-.434 20.097-3.573 1.488-.997 1.885-3.011.888-4.499-.997-1.487-3.011-1.885-4.498-.888-3.701 2.481-8.841 4.369-14.736 2.716-5.949-1.668-13.46-7.158-21.368-21.232-.877-1.561-2.854-2.116-4.415-1.239Z" fill="#7C5C4D"/><path d="M342.613 300.75c-.186 10.742 8.372 19.602 19.115 19.788 10.742.186 84.893-2.314 84.521-12.049-.372-9.735-34.43-9.243-48.412-13.269-13.983-4.025-28.409-13.463-35.436-13.584-15.128-.262-19.602 8.371-19.788 19.114Z" fill="#F78D4E"/><path d="M445.498 258.213c1.796-3.86 6.027-4.76 8.123-.94 2.096 3.819-3.997 12.361-8.366 14.988-4.37 2.627-11.44 5.207-14.682 5.15-3.242-.056-15.641-1.892-18.854-3.569-3.214-1.677-6.959-3.904-7.974-7.704-1.015-3.801-.41-7.574 2.329-9.689 2.739-2.114 7.565.131 12.362 3.998 4.797 3.866 12.352 4.537 15.603 4.053 3.251-.484 9.214-1.462 11.459-6.287ZM317.024 280.31c2.774-4.102 7.788-11.409 10.407-7.927 2.618 3.482-1.853 16.321-5.803 19.543-3.951 3.222-10.582 6.782-13.799 7.188-3.217.406-15.751.354-19.171-.848-3.42-1.203-6.488-3.432-8.034-7.05-1.546-3.618-2.21-9.05.2-11.533 2.41-2.483 7.277 1.224 12.576 4.367 5.299 3.144 10.106 2.967 13.255 2.025 3.149-.942 7.596-1.664 10.369-5.765Z" fill="#7C5C4D"/><ellipse cx="24.8508" cy="26.8499" rx="24.8508" ry="26.8499" transform="scale(-1 1) rotate(43.272 -579.30992 -467.34247)" fill="#FAA2A7"/><ellipse cx="28.1053" cy="29.4487" rx="28.1053" ry="29.4487" transform="scale(-1 1) rotate(57.858 -404.34905 -80.5526)" fill="#FAA2A7"/><ellipse cx="192.5" cy="526" rx="2.5" ry="15" fill="#FAA2A7"/><path d="M206 534c0 8.284-1.119 15-2.5 15s-2.5-6.716-2.5-15c0-8.284 1.119-15 2.5-15s2.5 6.716 2.5 15Z" fill="#FAA2A7"/><ellipse cx="214.5" cy="544" rx="2.5" ry="15" fill="#FAA2A7"/><ellipse cx="228.5" cy="552" rx="2.5" ry="15" fill="#FAA2A7"/><path d="m185.116 415.752 57.384 43s-9.046 17.915-9.046 48.5c0 30.586 14.046 46.252 9.046 48.5-5 2.248-57.384-43-57.384-43s-10.554-21.41-9.549-50.248c1.006-28.837 9.549-46.752 9.549-46.752Z" fill="#F2615C"/><path fill-rule="evenodd" clip-rule="evenodd" d="M338.001 457c105.486 0 191-69.844 191-156 0-.198-.001-.395-.002-.593C539.933 319.567 538.5 324 540.5 333c2 9 11.643 15.152 10 23-15.755 75.264-110.972 166-212.499 166-101.303 0-197.035-83.972-211.501-159-1.544-8.007 8.5-12 8.5-12s7.878-18.141 13.239-32.136C159.091 396.608 239.911 457 338.001 457Z" fill="#F2615C"/></svg>
